<svg width="14" height="14" viewBox="0 0 14 14" fill="none" xmlns="http://www.w3.org/2000/svg">
<path d="M12.8532 11.5274C13.0293 11.7035 13.1283 11.9424 13.1283 12.1915C13.1283 12.4405 13.0293 12.6794 12.8532 12.8555C12.6771 13.0317 12.4382 13.1306 12.1891 13.1306C11.9401 13.1306 11.7012 13.0317 11.5251 12.8555L6.56491 7.89381L1.60319 12.854C1.42707 13.0301 1.1882 13.129 0.939126 13.129C0.690054 13.129 0.451184 13.0301 0.275064 12.854C0.0989435 12.6778 3.71146e-09 12.439 0 12.1899C-3.71146e-09 11.9408 0.0989435 11.702 0.275064 11.5258L5.23678 6.56569L0.276626 1.60397C0.100506 1.42785 0.00156253 1.18898 0.00156254 0.939907C0.00156254 0.690836 0.100506 0.451965 0.276626 0.275845C0.452746 0.0997246 0.691617 0.000781121 0.940688 0.000781119C1.18976 0.000781116 1.42863 0.0997246 1.60475 0.275845L6.56491 5.23756L11.5266 0.275063C11.7027 0.0989432 11.9416 -4.14954e-09 12.1907 0C12.4398 4.14954e-09 12.6786 0.0989432 12.8547 0.275063C13.0309 0.451184 13.1298 0.690054 13.1298 0.939126C13.1298 1.1882 13.0309 1.42707 12.8547 1.60319L7.89303 6.56569L12.8532 11.5274Z" fill="white"/>
</svg>
