<svg
              width="65"
              height="49"
              viewBox="0 0 65 49"
              fill="none"
              xmlns="http://www.w3.org/2000/svg"
            >
              <g filter="url(#filter0_dd_20_324)">
                <rect
                  x="9.18835"
                  y="4.70605"
                  width="46.6143"
                  height="30.0304"
                  rx="5.37857"
                  fill="white"
                />
                <rect
                  x="9.0763"
                  y="4.594"
                  width="46.8384"
                  height="30.2545"
                  rx="5.49062"
                  stroke="#D6DCE5"
                  stroke-width="0.224107"
                />
                <path
                  fill-rule="evenodd"
                  clip-rule="evenodd"
                  d="M19.3855 15.3521H16.698C16.5141 15.3521 16.3577 15.4857 16.329 15.6672L15.2421 22.5579C15.2205 22.6939 15.3258 22.8165 15.4637 22.8165H16.7468C16.9307 22.8165 17.0871 22.6828 17.1158 22.501L17.4089 20.6425C17.4372 20.4605 17.594 20.327 17.7775 20.327H18.6283C20.3986 20.327 21.4203 19.4704 21.6873 17.773C21.8075 17.0304 21.6923 16.4469 21.3445 16.0381C20.9626 15.5895 20.285 15.3521 19.3855 15.3521ZM19.6956 17.8688C19.5487 18.8331 18.8118 18.8331 18.0994 18.8331H17.6938L17.9783 17.0322C17.9952 16.9234 18.0895 16.8433 18.1996 16.8433H18.3854C18.8708 16.8433 19.3286 16.8433 19.5652 17.1198C19.7061 17.2849 19.7494 17.53 19.6956 17.8688ZM27.4191 17.8379H26.1321C26.0225 17.8379 25.9277 17.9181 25.9108 18.027L25.8539 18.3868L25.7639 18.2565C25.4853 17.8521 24.8641 17.717 24.2439 17.717C22.8217 17.717 21.6071 18.794 21.3705 20.3048C21.2475 21.0583 21.4223 21.7789 21.8498 22.2815C22.2421 22.7436 22.8033 22.9361 23.4709 22.9361C24.6167 22.9361 25.2523 22.1993 25.2523 22.1993L25.1949 22.557C25.1732 22.6937 25.2785 22.8163 25.4156 22.8163H26.5749C26.7593 22.8163 26.9148 22.6826 26.9439 22.5008L27.6395 18.0965C27.6615 17.961 27.5566 17.8379 27.4191 17.8379ZM25.6251 20.3424C25.5009 21.0776 24.9173 21.5711 24.1732 21.5711C23.7995 21.5711 23.5007 21.4513 23.309 21.2242C23.1188 20.9987 23.0464 20.6776 23.107 20.3201C23.223 19.5911 23.8164 19.0816 24.5493 19.0816C24.9146 19.0816 25.2118 19.2029 25.4074 19.432C25.6035 19.6635 25.6813 19.9864 25.6251 20.3424ZM32.98 17.8377H34.2734C34.4545 17.8377 34.5602 18.0408 34.4572 18.1894L30.1558 24.3975C30.0862 24.4981 29.9714 24.5579 29.8489 24.5579H28.5572C28.3753 24.5579 28.2691 24.3531 28.3744 24.2042L29.7137 22.3139L28.2893 18.1339C28.24 17.9886 28.3473 17.8377 28.5019 17.8377H29.7727C29.9378 17.8377 30.0835 17.9461 30.1311 18.1041L30.8871 20.6287L32.6709 18.0015C32.7407 17.899 32.8567 17.8377 32.98 17.8377Z"
                  fill="#253B80"
                />
                <path
                  fill-rule="evenodd"
                  clip-rule="evenodd"
                  d="M47.0026 22.5573L48.1055 15.5405C48.1224 15.4316 48.2168 15.3514 48.3265 15.3511H49.5682C49.7053 15.3511 49.8106 15.474 49.7889 15.61L48.7013 22.5004C48.6729 22.6822 48.5165 22.8159 48.3323 22.8159H47.2234C47.0862 22.8159 46.9809 22.6933 47.0026 22.5573ZM38.5556 15.3514H35.8677C35.6842 15.3514 35.5278 15.4851 35.499 15.6666L34.4121 22.5573C34.3905 22.6933 34.4958 22.8159 34.6331 22.8159H36.0122C36.1404 22.8159 36.2501 22.7224 36.2701 22.5951L36.5785 20.6419C36.6069 20.4598 36.7637 20.3264 36.9471 20.3264H37.7975C39.5682 20.3264 40.5897 19.4698 40.8568 17.7724C40.9774 17.0298 40.8616 16.4463 40.5139 16.0375C40.1321 15.5889 39.4551 15.3514 38.5556 15.3514ZM38.8657 17.8682C38.7191 18.8324 37.9823 18.8324 37.2694 18.8324H36.8642L37.1492 17.0316C37.1661 16.9228 37.2596 16.8426 37.37 16.8426H37.5558C38.0408 16.8426 38.4991 16.8426 38.7355 17.1192C38.8766 17.2843 38.9195 17.5294 38.8657 17.8682ZM46.5885 17.8373H45.3024C45.1919 17.8373 45.098 17.9175 45.0815 18.0264L45.0246 18.3862L44.9342 18.2559C44.6556 17.8515 44.0347 17.7164 43.4146 17.7164C41.9923 17.7164 40.7781 18.7934 40.5415 20.3042C40.4189 21.0577 40.593 21.7783 41.0205 22.2809C41.4135 22.7429 41.974 22.9355 42.6415 22.9355C43.7874 22.9355 44.4228 22.1987 44.4228 22.1987L44.3655 22.5564C44.3439 22.6931 44.4492 22.8157 44.5872 22.8157H45.746C45.9295 22.8157 46.0859 22.682 46.1146 22.5002L46.8105 18.0958C46.8318 17.9604 46.7265 17.8373 46.5885 17.8373ZM44.7947 20.3418C44.6712 21.077 44.0869 21.5705 43.3426 21.5705C42.9696 21.5705 42.6703 21.4507 42.4784 21.2235C42.2882 20.9981 42.2167 20.677 42.2766 20.3195C42.3931 19.5905 42.9858 19.081 43.7187 19.081C44.0842 19.081 44.3812 19.2023 44.577 19.4314C44.7738 19.6629 44.8516 19.9858 44.7947 20.3418Z"
                  fill="#179BD7"
                />
              </g>
              <defs>
                <filter
                  id="filter0_dd_20_324"
                  x="-5.24521e-05"
                  y="-0.000209332"
                  width="64.9911"
                  height="48.4071"
                  filterUnits="userSpaceOnUse"
                  color-interpolation-filters="sRGB"
                >
                  <feFlood flood-opacity="0" result="BackgroundImageFix" />
                  <feColorMatrix
                    in="SourceAlpha"
                    type="matrix"
                    values="0 0 0 0 0 0 0 0 0 0 0 0 0 0 0 0 0 0 127 0"
                    result="hardAlpha"
                  />
                  <feOffset dy="0.448214" />
                  <feGaussianBlur stdDeviation="2.24107" />
                  <feColorMatrix
                    type="matrix"
                    values="0 0 0 0 0.717647 0 0 0 0 0.717647 0 0 0 0 0.717647 0 0 0 0.08 0"
                  />
                  <feBlend
                    mode="normal"
                    in2="BackgroundImageFix"
                    result="effect1_dropShadow_20_324"
                  />
                  <feColorMatrix
                    in="SourceAlpha"
                    type="matrix"
                    values="0 0 0 0 0 0 0 0 0 0 0 0 0 0 0 0 0 0 127 0"
                    result="hardAlpha"
                  />
                  <feOffset dy="4.48214" />
                  <feGaussianBlur stdDeviation="4.48214" />
                  <feColorMatrix
                    type="matrix"
                    values="0 0 0 0 0.717647 0 0 0 0 0.717647 0 0 0 0 0.717647 0 0 0 0.08 0"
                  />
                  <feBlend
                    mode="normal"
                    in2="effect1_dropShadow_20_324"
                    result="effect2_dropShadow_20_324"
                  />
                  <feBlend
                    mode="normal"
                    in="SourceGraphic"
                    in2="effect2_dropShadow_20_324"
                    result="shape"
                  />
                </filter>
              </defs>
            </svg>